<?xml version="1.0" standalone="no"?>
<!DOCTYPE svg PUBLIC "-//W3C//DTD SVG 20010904//EN"
 "http://www.w3.org/TR/2001/REC-SVG-20010904/DTD/svg10.dtd">
<svg version="1.0" xmlns="http://www.w3.org/2000/svg"
 width="1754.000000pt" height="1240.000000pt" viewBox="0 0 1754.000000 1240.000000"
 preserveAspectRatio="xMidYMid meet">

<g transform="translate(0.000000,1240.000000) scale(0.100000,-0.100000)"
fill="#C13584" stroke="none">
<path d="M8595 11190 c-397 -29 -803 -201 -1117 -474 -48 -42 -275 -282 -504
-534 -491 -538 -541 -591 -657 -688 -138 -117 -206 -158 -812 -494 -314 -175
-592 -330 -616 -346 -447 -288 -761 -731 -895 -1262 -47 -187 -64 -330 -64
-550 0 -302 46 -543 152 -812 16 -41 175 -365 353 -720 177 -355 339 -690 360
-745 65 -172 102 -351 205 -990 114 -706 121 -742 161 -885 77 -270 216 -538
396 -760 72 -89 243 -257 328 -321 243 -186 539 -321 830 -379 137 -28 435
-38 570 -21 50 7 342 59 650 116 308 57 603 112 655 121 72 14 147 18 305 18
l210 0 650 -102 c454 -72 689 -104 780 -109 567 -26 1138 222 1530 664 239
270 421 637 490 990 14 70 64 421 110 778 90 681 106 777 156 940 47 152 67
196 367 840 294 632 336 731 383 909 44 170 60 285 66 477 7 198 -5 340 -43
527 -118 588 -482 1107 -976 1395 -51 30 -340 181 -643 337 -302 156 -585 304
-627 331 -197 122 -246 167 -942 881 -202 208 -402 406 -444 440 -306 246
-670 393 -1062 428 -125 11 -154 11 -305 0z m1870 -2527 c4 -21 11 -76 15
-123 5 -47 16 -141 24 -210 16 -119 27 -219 46 -395 5 -44 16 -138 25 -210 16
-129 27 -232 45 -395 4 -47 16 -143 25 -215 9 -71 20 -168 25 -215 5 -47 12
-107 15 -135 3 -27 12 -108 21 -180 8 -71 19 -158 24 -191 6 -34 10 -78 10
-97 0 -20 4 -67 10 -104 5 -38 17 -131 25 -208 9 -77 21 -164 26 -194 5 -30 9
-75 9 -100 0 -24 4 -70 10 -100 11 -65 32 -239 59 -501 23 -211 32 -287 36
-308 5 -22 18 -133 35 -302 4 -47 16 -143 25 -215 16 -125 22 -178 44 -385 6
-52 17 -151 26 -220 9 -69 21 -168 26 -220 6 -52 15 -131 20 -175 6 -44 13
-119 15 -167 l5 -86 -28 -6 c-41 -8 -662 -28 -673 -21 -15 9 -32 126 -61 420
-15 154 -27 275 -44 415 -9 74 -20 180 -26 235 -5 55 -14 138 -19 185 -5 47
-16 148 -25 225 -14 129 -21 188 -45 425 -4 47 -16 148 -25 225 -9 77 -21 182
-26 233 -21 210 -29 284 -44 412 -15 125 -22 196 -45 420 -17 178 -32 308 -44
382 l-11 78 -95 -161 c-52 -89 -102 -173 -110 -188 -8 -14 -28 -49 -45 -76
-35 -58 -28 -47 -125 -211 -41 -70 -86 -146 -98 -168 -13 -23 -30 -51 -38 -63
-7 -12 -22 -37 -33 -55 -10 -18 -69 -118 -131 -223 -101 -170 -288 -487 -315
-533 -6 -9 -44 -73 -85 -142 -41 -69 -83 -142 -94 -162 -32 -61 -48 -59 -88
12 -14 25 -65 110 -113 190 -48 80 -96 159 -105 175 -9 17 -57 95 -105 175
-48 80 -95 159 -105 175 -24 42 -105 176 -162 268 -26 43 -48 80 -48 82 0 3
-23 42 -52 88 -28 45 -74 120 -102 167 -28 47 -56 94 -63 105 -7 11 -15 26
-19 34 -4 8 -43 73 -87 145 -44 72 -86 142 -94 156 -8 14 -25 43 -39 65 -14
22 -27 48 -31 58 -15 46 -20 0 -22 -200 -1 -119 -4 -220 -7 -224 -2 -4 -9
-182 -14 -396 -18 -686 -29 -1046 -35 -1133 -6 -78 -10 -227 -35 -1135 -5
-176 -12 -375 -16 -442 l-7 -123 -86 0 c-47 0 -149 7 -226 16 -77 8 -189 19
-250 23 -60 5 -122 12 -137 16 l-28 7 1 127 c0 131 8 264 34 611 9 113 20 273
25 355 31 481 47 695 60 830 6 55 10 131 10 168 0 38 4 110 10 160 5 51 16
202 25 337 9 135 20 286 25 337 6 50 10 120 10 154 0 34 4 112 10 173 5 61 17
210 25 331 8 121 20 267 25 325 6 58 10 130 10 160 0 30 4 109 10 175 15 183
51 687 70 985 15 236 30 412 36 433 6 19 34 24 34 5 0 -6 66 -123 146 -261 80
-137 154 -264 164 -282 11 -19 30 -52 44 -74 15 -22 26 -43 26 -46 0 -2 16
-29 35 -59 19 -30 35 -58 35 -61 0 -4 8 -19 19 -33 10 -15 29 -47 43 -72 14
-25 69 -119 122 -209 53 -90 96 -165 96 -167 0 -2 16 -28 35 -58 19 -30 35
-57 35 -60 0 -3 16 -30 35 -60 19 -30 35 -57 35 -60 0 -3 16 -30 35 -60 19
-30 35 -57 35 -60 0 -3 16 -30 35 -60 19 -30 35 -58 35 -61 0 -3 16 -31 35
-61 19 -30 35 -57 35 -59 0 -3 17 -34 38 -68 22 -34 64 -105 94 -157 31 -52
99 -169 152 -258 53 -90 96 -166 96 -168 0 -2 16 -28 35 -58 19 -30 35 -57 35
-60 0 -3 16 -30 35 -60 19 -30 35 -60 35 -66 0 -23 27 -7 45 28 11 20 34 60
52 89 18 29 33 54 33 57 0 3 16 30 35 60 19 30 35 57 35 60 0 3 20 38 44 78
40 67 78 132 189 323 22 39 58 98 79 132 21 34 38 65 38 68 0 3 16 31 35 61
19 30 35 57 35 60 0 3 16 30 35 60 19 30 35 57 35 60 0 3 16 30 35 60 19 30
35 56 35 58 0 2 74 131 165 286 91 155 165 284 165 286 0 2 16 28 35 58 19 30
35 57 35 60 0 3 16 30 35 60 19 30 35 57 35 60 0 3 16 30 35 60 19 30 35 58
35 61 0 3 16 31 35 61 19 30 35 57 35 60 0 3 16 30 35 60 19 30 35 57 35 60 0
3 16 30 35 60 19 30 35 56 35 58 0 2 34 61 75 132 41 71 75 134 75 141 0 30
28 10 35 -24z"/>
</g>
</svg>
